<svg xmlns="http://www.w3.org/2000/svg" viewBox="45 -0.5 291 291" role="img" aria-labelledby="title">
  <title id="title">MeloUnion mark reverse</title>
  <defs>
    <mask id="crescent-solid-cut" maskUnits="userSpaceOnUse" x="120" y="40" width="120" height="210">
      <rect x="120" y="40" width="120" height="210" fill="#FFFFFF"/>
      <path fill="#000000" d="M153.8 229.4C143.2 216.5 144.6 197.2 156.2 184.1C167.1 171.9 184.1 167.8 199.6 174.8C181.6 180.1 170 192.3 170 207.2C170 219.5 178.2 228.8 190.4 233.2C176.4 235 163.7 233.6 153.8 229.4Z"/>
    </mask>
  </defs>
  <rect x="58" y="111" width="21" height="58.5" rx="10.5" fill="#FFFFFF" opacity="0.44"/>
  <rect x="97" y="84" width="22" height="112" rx="11" fill="#FFFFFF" opacity="0.70"/>
  <path d="M149.25 51C156.3 51 162 56.7 162 63.75V178.6C162 187.2 156.4 193.7 151.8 203.6C148.3 211.1 149.3 221.6 155.35 228.55C143 222.3 136.5 209.2 136.5 192.2V63.75C136.5 56.7 142.2 51 149.25 51Z" fill="#FFFFFF" mask="url(#crescent-solid-cut)"/>
  <path d="M232.75 51C239.8 51 245.5 56.7 245.5 63.75V194.3C245.5 219.35 225.3 239 200.4 239C175.2 239 156.5 225.5 156.5 206.5C156.5 187.8 173.7 174 196.1 174C206.2 174 214.7 177.2 220 183.1V63.75C220 56.7 225.7 51 232.75 51Z" fill="#FFFFFF"/>
  <rect x="262.5" y="84" width="22" height="112" rx="11" fill="#FFFFFF" opacity="0.70"/>
  <rect x="302" y="111" width="21" height="58.5" rx="10.5" fill="#FFFFFF" opacity="0.44"/>
</svg>
