<svg xmlns="http://www.w3.org/2000/svg" viewBox="45 -0.5 291 291" role="img" aria-labelledby="title">
  <title id="title">MeloUnion mark</title>
  
  <defs>
    <mask id="crescent-cut-left-main" maskUnits="userSpaceOnUse" x="120" y="40" width="120" height="210">
      <rect x="120" y="40" width="120" height="210" fill="#FFFFFF"/>
      <path fill="#000000" d="M153.8 229.4C143.2 216.5 144.6 197.2 156.2 184.1C167.1 171.9 184.1 167.8 199.6 174.8C181.6 180.1 170 192.3 170 207.2C170 219.5 178.2 228.8 190.4 233.2C176.4 235 163.7 233.6 153.8 229.4Z"/>
    </mask>
    <linearGradient id="main-left" x1="148" y1="51" x2="155" y2="229" gradientUnits="userSpaceOnUse">
      <stop offset="0" stop-color="#09988D"/>
      <stop offset="0.48" stop-color="#078B83"/>
      <stop offset="1" stop-color="#009086"/>
    </linearGradient>
    <linearGradient id="main-right" x1="232" y1="51" x2="201" y2="239" gradientUnits="userSpaceOnUse">
      <stop offset="0" stop-color="#09968C"/>
      <stop offset="0.52" stop-color="#078980"/>
      <stop offset="1" stop-color="#009187"/>
    </linearGradient>
    <linearGradient id="mid-left" x1="108" y1="84" x2="108" y2="196" gradientUnits="userSpaceOnUse">
      <stop offset="0" stop-color="#67C0B9"/>
      <stop offset="1" stop-color="#45A9A1"/>
    </linearGradient>
    <linearGradient id="mid-right" x1="273" y1="84" x2="273" y2="196" gradientUnits="userSpaceOnUse">
      <stop offset="0" stop-color="#69C2BA"/>
      <stop offset="1" stop-color="#49AAA3"/>
    </linearGradient>
    <linearGradient id="pale-left" x1="68" y1="111" x2="68" y2="169" gradientUnits="userSpaceOnUse">
      <stop offset="0" stop-color="#B8E2DE"/>
      <stop offset="1" stop-color="#A1D4CF"/>
    </linearGradient>
    <linearGradient id="pale-right" x1="313" y1="111" x2="313" y2="169" gradientUnits="userSpaceOnUse">
      <stop offset="0" stop-color="#B8E2DE"/>
      <stop offset="1" stop-color="#A2D5D0"/>
    </linearGradient>
  </defs>
  <rect x="58" y="111" width="21" height="58.5" rx="10.5" fill="url(#pale-left)"/>
  <rect x="97" y="84" width="22" height="112" rx="11" fill="url(#mid-left)"/>
  <path d="M149.25 51C156.3 51 162 56.7 162 63.75V178.6C162 187.2 156.4 193.7 151.8 203.6C148.3 211.1 149.3 221.6 155.35 228.55C143 222.3 136.5 209.2 136.5 192.2V63.75C136.5 56.7 142.2 51 149.25 51Z" fill="url(#main-left)" mask="url(#crescent-cut-left-main)"/>
  <path d="M232.75 51C239.8 51 245.5 56.7 245.5 63.75V194.3C245.5 219.35 225.3 239 200.4 239C175.2 239 156.5 225.5 156.5 206.5C156.5 187.8 173.7 174 196.1 174C206.2 174 214.7 177.2 220 183.1V63.75C220 56.7 225.7 51 232.75 51Z" fill="url(#main-right)"/>
  <rect x="262.5" y="84" width="22" height="112" rx="11" fill="url(#mid-right)"/>
  <rect x="302" y="111" width="21" height="58.5" rx="10.5" fill="url(#pale-right)"/>
</svg>
